Coordinates
version=1
nRows=5
nColumns=40
inDegrees=yes

Units are S.I. units (second, meters, Newtons, ...)
If the header above contains a line with 'inDegrees', this indicates whether rotational values are in degrees (yes) or radians (no).

endheader
time	pelvis_tilt	pelvis_list	pelvis_rotation	pelvis_tx	pelvis_ty	pelvis_tz	hip_flexion_r	hip_adduction_r	hip_rotation_r	knee_angle_r	knee_angle_r_beta	ankle_angle_r	subtalar_angle_r	mtp_angle_r	hip_flexion_l	hip_adduction_l	hip_rotation_l	knee_angle_l	knee_angle_l_beta	ankle_angle_l	subtalar_angle_l	mtp_angle_l	lumbar_extension	lumbar_bending	lumbar_rotation	arm_flex_r	arm_add_r	arm_rot_r	elbow_flex_r	pro_sup_r	wrist_flex_r	wrist_dev_r	arm_flex_l	arm_add_l	arm_rot_l	elbow_flex_l	pro_sup_l	wrist_flex_l	wrist_dev_l
      0.88500000	     -7.65800979	      0.28353733	     -1.57943672	      0.23182053	      0.89061370	     -1.21538933	     15.62809857	    -21.21312213	    -31.02089603	     20.38858814	      0.35584799	     -5.58972885	      1.37373300	      0.00000000	     13.98645036	    -21.12488872	    -37.09531158	     17.96690998	      0.31358174	     -5.48381067	     15.12733553	      0.00000000	      5.75483544	     -0.19811927	      1.36501464	     44.99866237	    -15.00010218	     44.99866237	     75.00017588	     45.00000026	      0.00000000	      0.00000000	     44.99866237	    -15.00010218	     44.99866237	     75.00017588	     45.00000026	      0.00000000	      0.00000000
      0.89000000	     -7.71388399	      0.29413162	     -1.64846382	      0.23081898	      0.88959290	     -1.21517292	     16.10682101	    -21.36438873	    -30.67398837	     21.05673701	      0.36750939	     -5.26183641	      1.08965999	      0.00000000	     14.37831565	    -21.38258302	    -36.99574991	     18.67725484	      0.32597959	     -5.11859690	     15.13707802	      0.00000000	      5.54665560	     -0.23846689	      1.44090854	     44.99867919	    -15.00010036	     44.99867919	     75.00017588	     45.00000026	      0.00000000	      0.00000000	     44.99867919	    -15.00010036	     44.99867919	     75.00017588	     45.00000026	      0.00000000	      0.00000000
      0.89500000	     -7.79957070	      0.27123909	     -1.68234737	      0.22979290	      0.88845540	     -1.21500297	     16.61212625	    -21.50193737	    -30.36584703	     21.76852068	      0.37993236	     -4.91604662	      0.86392244	      0.00000000	     14.85438361	    -21.69527457	    -36.86016541	     19.46397480	      0.33971045	     -4.69971315	     15.12769399	      0.00000000	      5.36619118	     -0.21639929	      1.51663238	     44.99869716	    -15.00009842	     44.99869716	     75.00017588	     45.00000026	      0.00000000	      0.00000000	     44.99869716	    -15.00009842	     44.99869716	     75.00017588	     45.00000026	      0.00000000	      0.00000000
      0.90000000	     -7.86296651	      0.26359272	     -1.71986394	      0.22874519	      0.88735666	     -1.21488933	     17.07959602	    -21.63646633	    -30.01198741	     22.41609643	      0.39123469	     -4.63762680	      0.62415055	      0.00000000	     15.29142700	    -21.95532367	    -36.68480076	     20.18698045	      0.35232927	     -4.37409687	     14.91212129	      0.00000000	      5.16152517	     -0.19807393	      1.57317702	     44.99871441	    -15.00009646	     44.99871441	     75.00017587	     45.00000026	      0.00000000	      0.00000000	     44.99871441	    -15.00009646	     44.99871441	     75.00017587	     45.00000026	      0.00000000	      0.00000000
      0.90500000	     -7.97273270	      0.24017433	     -1.75142248	      0.22764272	      0.88613200	     -1.21475859	     17.62816088	    -21.78302336	    -29.74026298	     23.13320716	      0.40375063	     -4.45314513	      0.38234342	      0.00000000	     15.81184788	    -22.23530730	    -36.42213459	     20.93293854	      0.36534870	     -4.14419223	     14.53455282	      0.00000000	      4.99692633	     -0.19481187	      1.61134509	     44.99873374	    -15.00009431	     44.99873374	     75.00017587	     45.00000026	      0.00000000	      0.00000000	     44.99873374	    -15.00009431	     44.99873374	     75.00017587	     45.00000026	      0.00000000	      0.00000000
